<svg xmlns="http://www.w3.org/2000/svg" xmlns:xlink="http://www.w3.org/1999/xlink" width="500" zoomAndPan="magnify" viewBox="0 0 375 374.999991" height="500" preserveAspectRatio="xMidYMid meet" version="1.0"><defs><g/><clipPath id="af8f7a0b8b"><path d="M 106 167 L 368.8125 167 L 368.8125 211 L 106 211 Z M 106 167 " clip-rule="nonzero"/></clipPath><clipPath id="fc3a2ebbaa"><path d="M 6.65625 128 L 367 128 L 367 256 L 6.65625 256 Z M 6.65625 128 " clip-rule="nonzero"/></clipPath><clipPath id="a18eb7250e"><path d="M 6.65625 231 L 24 231 L 24 261.242188 L 6.65625 261.242188 Z M 6.65625 231 " clip-rule="nonzero"/></clipPath></defs><g clip-path="url(#af8f7a0b8b)"><path fill="#6a0dad" d="M 370.527344 178.359375 C 370.527344 178.953125 370.527344 179.644531 370.425781 180.238281 C 284.265625 187.84375 135.457031 206.71875 106.902344 210.375 C 107.792969 209.484375 108.878906 208.792969 110.0625 208.398438 L 180.417969 185.472656 C 185.554688 183.695312 186.742188 175.988281 181.996094 175.691406 L 115.597656 170.851562 C 148.699219 168.378906 268.753906 161.265625 370.425781 178.359375 Z M 370.527344 178.359375 " fill-opacity="1" fill-rule="nonzero"/></g><g clip-path="url(#fc3a2ebbaa)"><path fill="#6a0dad" d="M 104.136719 216.796875 C 119.449219 214.820312 274.089844 195.058594 365.585938 186.757812 C 364.796875 187.152344 363.90625 187.449219 363.015625 187.550781 C 312.226562 195.15625 200.179688 214.820312 97.8125 252.070312 C 95.835938 253.554688 93.464844 254.542969 91.09375 254.542969 C 89.3125 254.542969 87.734375 253.949219 86.449219 252.960938 L 66.09375 235.867188 C 65.996094 235.867188 65.699219 235.867188 65.304688 236.0625 L 16.492188 255.132812 C 15.207031 255.628906 13.921875 255.925781 12.738281 255.925781 C 9.96875 255.925781 7.699219 254.640625 6.609375 252.367188 C 5.324219 249.796875 5.820312 246.636719 8.09375 243.769531 L 37.339844 203.953125 C 37.636719 203.554688 37.835938 203.160156 37.933594 202.964844 L 23.804688 187.152344 C 22.222656 185.375 21.925781 182.804688 23.011719 180.136719 C 24.394531 176.582031 28.449219 172.429688 33.191406 171.738281 L 66.292969 167.195312 C 66.785156 167.195312 67.773438 166.601562 68.5625 165.710938 L 98.207031 133.992188 C 100.382812 131.621094 103.148438 130.238281 105.714844 130.238281 C 105.714844 130.238281 241.085938 113.9375 365.488281 170.949219 C 365.980469 171.246094 366.476562 171.441406 366.96875 171.839844 C 256.894531 154.25 127.652344 163.933594 108.78125 165.515625 L 108.089844 136.5625 C 108.089844 133.105469 104.136719 133.105469 100.972656 136.5625 L 71.230469 168.28125 C 69.847656 169.664062 68.167969 170.652344 66.6875 170.851562 L 33.585938 175.492188 C 29.140625 176.085938 24.496094 182.214844 26.667969 184.683594 L 41.09375 200.886719 C 42.183594 201.976562 41.886719 204.148438 40.402344 206.222656 L 11.15625 246.042969 C 8.09375 250.09375 10.464844 253.453125 15.207031 251.675781 L 64.019531 232.703125 C 65.796875 232.011719 67.476562 232.113281 68.5625 233 L 89.019531 250.195312 C 91.882812 252.464844 97.714844 249.207031 98.601562 244.957031 L 104.332031 216.992188 Z M 104.136719 216.796875 " fill-opacity="1" fill-rule="nonzero"/></g><path fill="#6a0dad" d="M 157.988281 187.054688 L 102.753906 205.039062 C 100.777344 205.632812 98.996094 207.605469 98.503906 209.484375 L 93.5625 233.59375 C 92.871094 236.953125 88.324219 239.523438 86.054688 237.742188 L 69.949219 224.207031 C 69.15625 223.515625 67.871094 223.417969 66.390625 224.007812 L 28.050781 238.929688 C 24.394531 240.3125 22.421875 237.742188 24.890625 234.484375 L 47.8125 203.160156 C 49 201.578125 49.199219 199.898438 48.40625 199.011719 L 37.042969 186.363281 C 35.363281 184.386719 39.019531 179.644531 42.480469 179.148438 L 68.464844 175.492188 C 69.652344 175.296875 70.9375 174.605469 72.023438 173.519531 L 95.339844 148.617188 C 97.8125 145.851562 100.972656 145.851562 100.972656 148.617188 L 101.566406 173.320312 C 101.566406 174.507812 102.355469 175.296875 103.542969 175.394531 L 159.171875 179.445312 C 162.925781 179.742188 161.9375 185.769531 157.886719 187.152344 Z M 157.988281 187.054688 " fill-opacity="1" fill-rule="nonzero"/><path fill="#6a0dad" d="M 335.746094 230.828125 C 326.753906 230.828125 322.898438 234.679688 322.898438 243.671875 C 322.898438 234.679688 319.046875 230.828125 310.054688 230.828125 C 319.046875 230.828125 322.898438 226.972656 322.898438 217.980469 C 322.898438 226.972656 326.753906 230.828125 335.746094 230.828125 Z M 335.746094 230.828125 " fill-opacity="1" fill-rule="nonzero"/><g clip-path="url(#a18eb7250e)"><path fill="#6a0dad" d="M 24 274.105469 C -5.542969 274.105469 -18.191406 286.65625 -18.191406 316.296875 C -18.191406 286.753906 -30.738281 274.105469 -60.382812 274.105469 C -30.839844 274.105469 -18.191406 261.558594 -18.191406 231.914062 C -18.191406 261.457031 -5.640625 274.105469 24 274.105469 Z M 24 274.105469 " fill-opacity="1" fill-rule="nonzero"/></g><path stroke-linecap="butt" transform="matrix(0.970924, 0, 0, 0.970924, 35.963315, 164.073299)" fill="none" stroke-linejoin="miter" d="M 52.118482 50.001637 C 51.804671 50.001637 51.531091 49.884963 51.297744 49.659662 C 51.060373 49.422292 50.9437 49.148712 50.9437 48.838924 L 50.9437 40.430375 C 50.9437 40.088401 51.060373 39.810798 51.297744 39.597567 C 51.531091 39.376289 51.804671 39.267662 52.118482 39.267662 L 73.115714 39.267662 C 73.457689 39.267662 73.735292 39.150988 73.948523 38.913618 C 74.1698 38.676247 74.278427 38.406691 74.278427 38.104949 C 74.278427 37.754928 74.1698 37.473302 73.948523 37.260071 C 73.735292 37.042816 73.457689 36.930166 73.115714 36.930166 L 60.470706 36.930166 C 58.63209 36.930166 56.994636 36.519797 55.558343 35.699058 C 54.130097 34.874296 53.003593 33.743769 52.174808 32.315522 C 51.354069 30.87923 50.9437 29.245799 50.9437 27.41523 L 50.9437 22.189055 C 50.9437 20.35044 51.354069 18.717009 52.174808 17.288762 C 53.003593 15.85247 54.130097 14.725965 55.558343 13.905227 C 56.994636 13.076442 58.63209 12.662049 60.470706 12.662049 L 87.120574 12.662049 C 87.462549 12.662049 87.740152 12.770676 87.949359 12.991954 C 88.170637 13.213231 88.283287 13.494857 88.283287 13.836832 L 88.283287 22.233311 C 88.283287 22.543099 88.170637 22.816679 87.949359 23.054049 C 87.740152 23.27935 87.462549 23.396024 87.120574 23.396024 L 66.119319 23.396024 C 65.809531 23.396024 65.535951 23.504651 65.29858 23.725929 C 65.065233 23.947206 64.94856 24.224809 64.94856 24.566783 C 64.94856 24.880595 65.065233 25.154175 65.29858 25.387522 C 65.535951 25.616846 65.809531 25.729497 66.119319 25.729497 L 78.768351 25.729497 C 80.59892 25.729497 82.228328 26.143889 83.656574 26.972674 C 85.092867 27.793413 86.219371 28.919917 87.04011 30.35621 C 87.868895 31.784456 88.283287 33.417887 88.283287 35.256503 L 88.283287 40.474631 C 88.283287 42.313246 87.868895 43.950701 87.04011 45.386993 C 86.219371 46.81524 85.092867 47.941744 83.656574 48.770529 C 82.228328 49.591268 80.59892 50.001637 78.768351 50.001637 Z M 98.860356 50.001637 C 98.550568 50.001637 98.268942 49.884963 98.019502 49.659662 C 97.774085 49.422292 97.653388 49.148712 97.653388 48.838924 L 97.653388 26.437585 C 97.653388 26.087564 97.536714 25.805938 97.299344 25.592707 C 97.065996 25.375452 96.776324 25.262802 96.434349 25.262802 L 91.77545 25.262802 C 91.461638 25.262802 91.188059 25.150152 90.954711 24.920828 C 90.717341 24.68748 90.600667 24.413901 90.600667 24.100089 L 90.600667 13.788553 C 90.600667 13.438532 90.717341 13.160929 90.954711 12.947698 C 91.188059 12.726421 91.461638 12.617793 91.77545 12.617793 L 117.536185 12.662049 C 117.87816 12.662049 118.155762 12.778723 118.368994 13.016093 C 118.590271 13.24944 118.698898 13.52302 118.698898 13.836832 L 118.698898 24.100089 C 118.698898 24.413901 118.590271 24.68748 118.368994 24.920828 C 118.155762 25.150152 117.87816 25.262802 117.536185 25.262802 L 112.865216 25.262802 C 112.555428 25.262802 112.273802 25.375452 112.020338 25.592707 C 111.778945 25.805938 111.658248 26.087564 111.658248 26.437585 L 111.658248 48.790645 C 111.658248 49.09641 111.545597 49.374013 111.328343 49.623453 C 111.107065 49.872894 110.825439 50.001637 110.483465 50.001637 Z M 122.23934 50.001637 C 121.929551 50.001637 121.647925 49.884963 121.398485 49.659662 C 121.145022 49.422292 121.020301 49.148712 121.020301 48.838924 L 121.020301 13.836832 C 121.020301 13.494857 121.136975 13.213231 121.374346 12.991954 C 121.607693 12.770676 121.881272 12.662049 122.195084 12.662049 L 157.241432 12.662049 C 157.583406 12.662049 157.861009 12.770676 158.07424 12.991954 C 158.295518 13.213231 158.404145 13.494857 158.404145 13.836832 L 158.404145 22.700005 C 158.404145 23.009794 158.295518 23.283373 158.07424 23.520744 C 157.861009 23.750068 157.583406 23.862718 157.241432 23.862718 L 136.195921 23.862718 C 135.886132 23.862718 135.612553 23.971346 135.379206 24.192623 C 135.141835 24.413901 135.025161 24.695527 135.025161 25.037501 C 135.025161 25.34729 135.141835 25.620869 135.379206 25.854217 C 135.612553 26.083541 135.886132 26.196191 136.195921 26.196191 L 155.330398 26.196191 C 155.668349 26.196191 155.953998 26.308842 156.183322 26.530119 C 156.41667 26.739327 156.537367 27.01693 156.537367 27.358904 L 156.537367 35.300758 C 156.537367 35.61457 156.424716 35.88815 156.207462 36.121497 C 155.994231 36.350821 155.716628 36.463471 155.374653 36.463471 L 136.195921 36.463471 C 135.886132 36.463471 135.612553 36.572099 135.379206 36.793376 C 135.141835 37.014654 135.025161 37.29628 135.025161 37.638254 C 135.025161 37.948043 135.141835 38.221623 135.379206 38.458993 C 135.612553 38.684294 135.886132 38.800968 136.195921 38.800968 L 157.197176 38.800968 C 157.539151 38.800968 157.8248 38.909595 158.050101 39.130872 C 158.287471 39.344103 158.404145 39.621706 158.404145 39.963681 L 158.404145 48.838924 C 158.404145 49.148712 158.295518 49.422292 158.07424 49.659662 C 157.861009 49.884963 157.583406 50.001637 157.241432 50.001637 Z M 161.900331 50.001637 C 161.586519 50.001637 161.312939 49.884963 161.079592 49.659662 C 160.842222 49.422292 160.725548 49.148712 160.725548 48.838924 L 160.725548 13.836832 C 160.725548 13.494857 160.850268 13.213231 161.099708 12.991954 C 161.353172 12.770676 161.634798 12.662049 161.944586 12.662049 L 173.567695 12.662049 C 173.909669 12.662049 174.187272 12.778723 174.39648 13.016093 C 174.617758 13.24944 174.730408 13.539113 174.730408 13.881087 L 174.730408 36.234147 C 174.730408 36.547959 174.855128 36.821539 175.104568 37.054886 C 175.354008 37.28421 175.635634 37.396861 175.949446 37.396861 L 187.568532 37.396861 C 187.910506 37.396861 188.188109 37.509511 188.40134 37.726765 C 188.622618 37.939997 188.731245 38.217599 188.731245 38.559574 L 188.731245 48.838924 C 188.731245 49.148712 188.622618 49.422292 188.40134 49.659662 C 188.188109 49.884963 187.910506 50.001637 187.568532 50.001637 Z M 192.223407 50.001637 C 191.913619 50.001637 191.640039 49.884963 191.406692 49.659662 C 191.169321 49.422292 191.052648 49.148712 191.052648 48.838924 L 191.052648 13.836832 C 191.052648 13.494857 191.177368 13.213231 191.426808 12.991954 C 191.680272 12.770676 191.957874 12.662049 192.271686 12.662049 L 203.894795 12.662049 C 204.232746 12.662049 204.510349 12.778723 204.72358 13.016093 C 204.944857 13.24944 205.053485 13.539113 205.053485 13.881087 L 205.053485 36.234147 C 205.053485 36.547959 205.182228 36.821539 205.431668 37.054886 C 205.681108 37.28421 205.962734 37.396861 206.272523 37.396861 L 217.895631 37.396861 C 218.237606 37.396861 218.515209 37.509511 218.72844 37.726765 C 218.949717 37.939997 219.058345 38.217599 219.058345 38.559574 L 219.058345 48.838924 C 219.058345 49.148712 218.949717 49.422292 218.72844 49.659662 C 218.515209 49.884963 218.237606 50.001637 217.895631 50.001637 Z M 222.598786 50.001637 C 222.284974 50.001637 222.003348 49.884963 221.753908 49.659662 C 221.504468 49.422292 221.379748 49.148712 221.379748 48.838924 L 221.379748 22.189055 C 221.379748 20.35044 221.790117 18.717009 222.610856 17.288762 C 223.435618 15.85247 224.566145 14.725965 225.994391 13.905227 C 227.426661 13.076442 229.064115 12.662049 230.902731 12.662049 L 242.195934 12.662049 C 244.03455 12.662049 245.667981 13.076442 247.096227 13.905227 C 248.528497 14.725965 249.659024 15.85247 250.479763 17.288762 C 251.308548 18.717009 251.718917 20.35044 251.718917 22.189055 L 251.718917 48.838924 C 251.718917 49.148712 251.61029 49.422292 251.389012 49.659662 C 251.171758 49.884963 250.890132 50.001637 250.548158 50.001637 L 238.925049 50.001637 C 238.619284 50.001637 238.345704 49.884963 238.092241 49.659662 C 237.842801 49.422292 237.71808 49.148712 237.71808 48.838924 L 237.71808 42.341409 C 237.71808 41.999435 237.60543 41.717808 237.388176 41.488484 C 237.174945 41.255137 236.897342 41.13444 236.555367 41.13444 C 236.245579 41.13444 235.971999 41.247091 235.734629 41.464345 C 235.501281 41.677576 235.380584 41.955179 235.380584 42.297153 L 235.380584 48.838924 C 235.380584 49.148712 235.271957 49.422292 235.05068 49.659662 C 234.837449 49.884963 234.559846 50.001637 234.217871 50.001637 Z M 236.555367 29.933771 C 236.897342 29.933771 237.174945 29.817097 237.388176 29.58375 C 237.60543 29.346379 237.71808 29.0728 237.71808 28.763011 L 237.71808 25.037501 C 237.71808 24.695527 237.60543 24.413901 237.388176 24.192623 C 237.174945 23.971346 236.897342 23.862718 236.555367 23.862718 C 236.245579 23.862718 235.971999 23.971346 235.734629 24.192623 C 235.501281 24.413901 235.380584 24.695527 235.380584 25.037501 L 235.380584 28.763011 C 235.380584 29.0728 235.501281 29.346379 235.734629 29.58375 C 235.971999 29.817097 236.245579 29.933771 236.555367 29.933771 Z M 255.21108 50.001637 C 254.901291 50.001637 254.627712 49.884963 254.390341 49.659662 C 254.156994 49.422292 254.036297 49.148712 254.036297 48.838924 L 254.036297 13.836832 C 254.036297 13.494857 254.156994 13.213231 254.390341 12.991954 C 254.627712 12.770676 254.901291 12.662049 255.21108 12.662049 L 283.776006 12.662049 C 285.236438 12.662049 286.535941 12.987931 287.682561 13.639694 C 288.837228 14.29548 289.742454 15.200706 290.394217 16.355373 C 291.050003 17.501993 291.375885 18.80552 291.375885 20.273998 L 291.375885 25.399592 C 291.375885 26.775536 290.925283 27.91411 290.020057 28.819336 C 289.122877 29.716517 287.988326 30.163095 286.612382 30.163095 L 286.202013 30.163095 C 285.892224 30.163095 285.618644 30.271722 285.381274 30.493 C 285.147927 30.714277 285.031253 30.995903 285.031253 31.337878 C 285.031253 31.647666 285.147927 31.921246 285.381274 32.158616 C 285.618644 32.383917 285.892224 32.500591 286.202013 32.500591 L 286.612382 32.500591 C 287.988326 32.500591 289.122877 32.951193 290.020057 33.856419 C 290.925283 34.757622 291.375885 35.892173 291.375885 37.260071 L 291.375885 48.790645 C 291.375885 49.09641 291.267258 49.374013 291.04598 49.623453 C 290.832749 49.872894 290.555146 50.001637 290.213172 50.001637 L 278.545808 50.001637 C 278.236019 50.001637 277.96244 49.884963 277.725069 49.659662 C 277.491722 49.422292 277.371025 49.148712 277.371025 48.838924 L 277.371025 37.863555 C 277.371025 37.521581 277.262398 37.248001 277.04112 37.03477 C 276.827889 36.813492 276.550286 36.704865 276.212335 36.704865 L 269.21594 36.704865 C 268.902128 36.704865 268.628549 36.813492 268.395201 37.03477 C 268.157831 37.248001 268.041157 37.521581 268.041157 37.863555 L 268.041157 48.790645 C 268.041157 49.09641 267.93253 49.374013 267.711252 49.623453 C 267.498021 49.872894 267.220418 50.001637 266.878444 50.001637 Z M 269.21594 25.97089 L 276.212335 25.97089 C 276.550286 25.97089 276.827889 25.854217 277.04112 25.616846 C 277.262398 25.379476 277.371025 25.105896 277.371025 24.796108 C 277.371025 24.454133 277.262398 24.17653 277.04112 23.963299 C 276.827889 23.746045 276.550286 23.633394 276.212335 23.633394 L 269.21594 23.633394 C 268.902128 23.633394 268.628549 23.746045 268.395201 23.963299 C 268.157831 24.17653 268.041157 24.454133 268.041157 24.796108 C 268.041157 25.105896 268.157831 25.379476 268.395201 25.616846 C 268.628549 25.854217 268.902128 25.97089 269.21594 25.97089 Z M 269.21594 25.97089 " stroke="#000000" stroke-width="12.252739" stroke-opacity="1" stroke-miterlimit="4"/><g fill="#eb008b" fill-opacity="1"><g transform="translate(84.297131, 212.619504)"><g><path d="M 2.265625 0 C 1.960938 0 1.695312 -0.109375 1.46875 -0.328125 C 1.238281 -0.554688 1.125 -0.820312 1.125 -1.125 L 1.125 -9.28125 C 1.125 -9.613281 1.238281 -9.882812 1.46875 -10.09375 C 1.695312 -10.3125 1.960938 -10.421875 2.265625 -10.421875 L 22.65625 -10.421875 C 22.988281 -10.421875 23.257812 -10.53125 23.46875 -10.75 C 23.675781 -10.976562 23.78125 -11.242188 23.78125 -11.546875 C 23.78125 -11.878906 23.675781 -12.148438 23.46875 -12.359375 C 23.257812 -12.578125 22.988281 -12.6875 22.65625 -12.6875 L 10.375 -12.6875 C 8.59375 -12.6875 7.003906 -13.085938 5.609375 -13.890625 C 4.222656 -14.691406 3.128906 -15.785156 2.328125 -17.171875 C 1.523438 -18.554688 1.125 -20.144531 1.125 -21.9375 L 1.125 -27 C 1.125 -28.78125 1.523438 -30.363281 2.328125 -31.75 C 3.128906 -33.144531 4.222656 -34.242188 5.609375 -35.046875 C 7.003906 -35.847656 8.59375 -36.25 10.375 -36.25 L 36.25 -36.25 C 36.582031 -36.25 36.851562 -36.140625 37.0625 -35.921875 C 37.269531 -35.710938 37.375 -35.441406 37.375 -35.109375 L 37.375 -26.953125 C 37.375 -26.648438 37.269531 -26.382812 37.0625 -26.15625 C 36.851562 -25.9375 36.582031 -25.828125 36.25 -25.828125 L 15.859375 -25.828125 C 15.554688 -25.828125 15.289062 -25.71875 15.0625 -25.5 C 14.832031 -25.289062 14.71875 -25.019531 14.71875 -24.6875 C 14.71875 -24.382812 14.832031 -24.117188 15.0625 -23.890625 C 15.289062 -23.671875 15.554688 -23.5625 15.859375 -23.5625 L 28.140625 -23.5625 C 29.921875 -23.5625 31.503906 -23.160156 32.890625 -22.359375 C 34.285156 -21.554688 35.378906 -20.457031 36.171875 -19.0625 C 36.972656 -17.675781 37.375 -16.09375 37.375 -14.3125 L 37.375 -9.25 C 37.375 -7.457031 36.972656 -5.867188 36.171875 -4.484375 C 35.378906 -3.097656 34.285156 -2.003906 32.890625 -1.203125 C 31.503906 -0.398438 29.921875 0 28.140625 0 Z M 2.265625 0 "/></g></g></g><g fill="#eb008b" fill-opacity="1"><g transform="translate(122.801763, 212.619504)"><g><path d="M 9.15625 0 C 8.851562 0 8.578125 -0.109375 8.328125 -0.328125 C 8.085938 -0.554688 7.96875 -0.820312 7.96875 -1.125 L 7.96875 -22.875 C 7.96875 -23.207031 7.851562 -23.476562 7.625 -23.6875 C 7.40625 -23.90625 7.128906 -24.015625 6.796875 -24.015625 L 2.265625 -24.015625 C 1.960938 -24.015625 1.695312 -24.125 1.46875 -24.34375 C 1.238281 -24.570312 1.125 -24.835938 1.125 -25.140625 L 1.125 -35.15625 C 1.125 -35.488281 1.238281 -35.757812 1.46875 -35.96875 C 1.695312 -36.1875 1.960938 -36.296875 2.265625 -36.296875 L 27.28125 -36.25 C 27.613281 -36.25 27.882812 -36.132812 28.09375 -35.90625 C 28.300781 -35.675781 28.40625 -35.410156 28.40625 -35.109375 L 28.40625 -25.140625 C 28.40625 -24.835938 28.300781 -24.570312 28.09375 -24.34375 C 27.882812 -24.125 27.613281 -24.015625 27.28125 -24.015625 L 22.75 -24.015625 C 22.445312 -24.015625 22.171875 -23.90625 21.921875 -23.6875 C 21.679688 -23.476562 21.5625 -23.207031 21.5625 -22.875 L 21.5625 -1.171875 C 21.5625 -0.867188 21.457031 -0.597656 21.25 -0.359375 C 21.039062 -0.117188 20.769531 0 20.4375 0 Z M 9.15625 0 "/></g></g></g><g fill="#eb008b" fill-opacity="1"><g transform="translate(152.33708, 212.619504)"><g><path d="M 2.3125 0 C 2.007812 0 1.734375 -0.109375 1.484375 -0.328125 C 1.242188 -0.554688 1.125 -0.820312 1.125 -1.125 L 1.125 -35.109375 C 1.125 -35.441406 1.238281 -35.710938 1.46875 -35.921875 C 1.695312 -36.140625 1.960938 -36.25 2.265625 -36.25 L 36.296875 -36.25 C 36.628906 -36.25 36.898438 -36.140625 37.109375 -35.921875 C 37.316406 -35.710938 37.421875 -35.441406 37.421875 -35.109375 L 37.421875 -26.5 C 37.421875 -26.195312 37.316406 -25.929688 37.109375 -25.703125 C 36.898438 -25.484375 36.628906 -25.375 36.296875 -25.375 L 15.859375 -25.375 C 15.554688 -25.375 15.289062 -25.265625 15.0625 -25.046875 C 14.832031 -24.835938 14.71875 -24.566406 14.71875 -24.234375 C 14.71875 -23.929688 14.832031 -23.664062 15.0625 -23.4375 C 15.289062 -23.21875 15.554688 -23.109375 15.859375 -23.109375 L 34.4375 -23.109375 C 34.769531 -23.109375 35.046875 -23 35.265625 -22.78125 C 35.492188 -22.570312 35.609375 -22.300781 35.609375 -21.96875 L 35.609375 -14.265625 C 35.609375 -13.960938 35.503906 -13.695312 35.296875 -13.46875 C 35.085938 -13.25 34.816406 -13.140625 34.484375 -13.140625 L 15.859375 -13.140625 C 15.554688 -13.140625 15.289062 -13.03125 15.0625 -12.8125 C 14.832031 -12.601562 14.71875 -12.332031 14.71875 -12 C 14.71875 -11.695312 14.832031 -11.429688 15.0625 -11.203125 C 15.289062 -10.984375 15.554688 -10.875 15.859375 -10.875 L 36.25 -10.875 C 36.582031 -10.875 36.859375 -10.765625 37.078125 -10.546875 C 37.304688 -10.335938 37.421875 -10.066406 37.421875 -9.734375 L 37.421875 -1.125 C 37.421875 -0.820312 37.316406 -0.554688 37.109375 -0.328125 C 36.898438 -0.109375 36.628906 0 36.296875 0 Z M 2.3125 0 "/></g></g></g><g fill="#eb008b" fill-opacity="1"><g transform="translate(190.887001, 212.619504)"><g><path d="M 2.265625 0 C 1.960938 0 1.695312 -0.109375 1.46875 -0.328125 C 1.238281 -0.554688 1.125 -0.820312 1.125 -1.125 L 1.125 -35.109375 C 1.125 -35.441406 1.242188 -35.710938 1.484375 -35.921875 C 1.734375 -36.140625 2.007812 -36.25 2.3125 -36.25 L 13.59375 -36.25 C 13.925781 -36.25 14.195312 -36.132812 14.40625 -35.90625 C 14.613281 -35.675781 14.71875 -35.398438 14.71875 -35.078125 L 14.71875 -13.359375 C 14.71875 -13.054688 14.835938 -12.789062 15.078125 -12.5625 C 15.328125 -12.34375 15.601562 -12.234375 15.90625 -12.234375 L 27.1875 -12.234375 C 27.519531 -12.234375 27.789062 -12.125 28 -11.90625 C 28.207031 -11.695312 28.3125 -11.425781 28.3125 -11.09375 L 28.3125 -1.125 C 28.3125 -0.820312 28.207031 -0.554688 28 -0.328125 C 27.789062 -0.109375 27.519531 0 27.1875 0 Z M 2.265625 0 "/></g></g></g><g fill="#eb008b" fill-opacity="1"><g transform="translate(220.331724, 212.619504)"><g><path d="M 2.265625 0 C 1.960938 0 1.695312 -0.109375 1.46875 -0.328125 C 1.238281 -0.554688 1.125 -0.820312 1.125 -1.125 L 1.125 -35.109375 C 1.125 -35.441406 1.242188 -35.710938 1.484375 -35.921875 C 1.734375 -36.140625 2.007812 -36.25 2.3125 -36.25 L 13.59375 -36.25 C 13.925781 -36.25 14.195312 -36.132812 14.40625 -35.90625 C 14.613281 -35.675781 14.71875 -35.398438 14.71875 -35.078125 L 14.71875 -13.359375 C 14.71875 -13.054688 14.835938 -12.789062 15.078125 -12.5625 C 15.328125 -12.34375 15.601562 -12.234375 15.90625 -12.234375 L 27.1875 -12.234375 C 27.519531 -12.234375 27.789062 -12.125 28 -11.90625 C 28.207031 -11.695312 28.3125 -11.425781 28.3125 -11.09375 L 28.3125 -1.125 C 28.3125 -0.820312 28.207031 -0.554688 28 -0.328125 C 27.789062 -0.109375 27.519531 0 27.1875 0 Z M 2.265625 0 "/></g></g></g><g fill="#eb008b" fill-opacity="1"><g transform="translate(249.776446, 212.619504)"><g><path d="M 2.3125 0 C 2.007812 0 1.734375 -0.109375 1.484375 -0.328125 C 1.242188 -0.554688 1.125 -0.820312 1.125 -1.125 L 1.125 -27 C 1.125 -28.78125 1.523438 -30.363281 2.328125 -31.75 C 3.128906 -33.144531 4.222656 -34.242188 5.609375 -35.046875 C 7.003906 -35.847656 8.59375 -36.25 10.375 -36.25 L 21.34375 -36.25 C 23.125 -36.25 24.707031 -35.847656 26.09375 -35.046875 C 27.488281 -34.242188 28.582031 -33.144531 29.375 -31.75 C 30.175781 -30.363281 30.578125 -28.78125 30.578125 -27 L 30.578125 -1.125 C 30.578125 -0.820312 30.472656 -0.554688 30.265625 -0.328125 C 30.054688 -0.109375 29.785156 0 29.453125 0 L 18.171875 0 C 17.867188 0 17.59375 -0.109375 17.34375 -0.328125 C 17.101562 -0.554688 16.984375 -0.820312 16.984375 -1.125 L 16.984375 -7.4375 C 16.984375 -7.757812 16.878906 -8.035156 16.671875 -8.265625 C 16.460938 -8.492188 16.191406 -8.609375 15.859375 -8.609375 C 15.554688 -8.609375 15.289062 -8.5 15.0625 -8.28125 C 14.832031 -8.070312 14.71875 -7.800781 14.71875 -7.46875 L 14.71875 -1.125 C 14.71875 -0.820312 14.613281 -0.554688 14.40625 -0.328125 C 14.195312 -0.109375 13.925781 0 13.59375 0 Z M 15.859375 -19.484375 C 16.191406 -19.484375 16.460938 -19.59375 16.671875 -19.8125 C 16.878906 -20.039062 16.984375 -20.304688 16.984375 -20.609375 L 16.984375 -24.234375 C 16.984375 -24.566406 16.878906 -24.835938 16.671875 -25.046875 C 16.460938 -25.265625 16.191406 -25.375 15.859375 -25.375 C 15.554688 -25.375 15.289062 -25.265625 15.0625 -25.046875 C 14.832031 -24.835938 14.71875 -24.566406 14.71875 -24.234375 L 14.71875 -20.609375 C 14.71875 -20.304688 14.832031 -20.039062 15.0625 -19.8125 C 15.289062 -19.59375 15.554688 -19.484375 15.859375 -19.484375 Z M 15.859375 -19.484375 "/></g></g></g><g fill="#eb008b" fill-opacity="1"><g transform="translate(281.486134, 212.619504)"><g><path d="M 2.265625 0 C 1.960938 0 1.695312 -0.109375 1.46875 -0.328125 C 1.238281 -0.554688 1.125 -0.820312 1.125 -1.125 L 1.125 -35.109375 C 1.125 -35.441406 1.238281 -35.710938 1.46875 -35.921875 C 1.695312 -36.140625 1.960938 -36.25 2.265625 -36.25 L 30 -36.25 C 31.414062 -36.25 32.679688 -35.929688 33.796875 -35.296875 C 34.921875 -34.660156 35.796875 -33.785156 36.421875 -32.671875 C 37.054688 -31.554688 37.375 -30.285156 37.375 -28.859375 L 37.375 -23.875 C 37.375 -22.550781 36.9375 -21.445312 36.0625 -20.5625 C 35.1875 -19.6875 34.085938 -19.25 32.765625 -19.25 L 32.359375 -19.25 C 32.054688 -19.25 31.789062 -19.144531 31.5625 -18.9375 C 31.332031 -18.726562 31.21875 -18.457031 31.21875 -18.125 C 31.21875 -17.820312 31.332031 -17.554688 31.5625 -17.328125 C 31.789062 -17.097656 32.054688 -16.984375 32.359375 -16.984375 L 32.765625 -16.984375 C 34.085938 -16.984375 35.1875 -16.546875 36.0625 -15.671875 C 36.9375 -14.796875 37.375 -13.695312 37.375 -12.375 L 37.375 -1.171875 C 37.375 -0.867188 37.269531 -0.597656 37.0625 -0.359375 C 36.851562 -0.117188 36.582031 0 36.25 0 L 24.921875 0 C 24.617188 0 24.351562 -0.109375 24.125 -0.328125 C 23.894531 -0.554688 23.78125 -0.820312 23.78125 -1.125 L 23.78125 -11.78125 C 23.78125 -12.113281 23.675781 -12.382812 23.46875 -12.59375 C 23.257812 -12.800781 22.988281 -12.90625 22.65625 -12.90625 L 15.859375 -12.90625 C 15.554688 -12.90625 15.289062 -12.800781 15.0625 -12.59375 C 14.832031 -12.382812 14.71875 -12.113281 14.71875 -11.78125 L 14.71875 -1.171875 C 14.71875 -0.867188 14.613281 -0.597656 14.40625 -0.359375 C 14.195312 -0.117188 13.925781 0 13.59375 0 Z M 15.859375 -23.328125 L 22.65625 -23.328125 C 22.988281 -23.328125 23.257812 -23.441406 23.46875 -23.671875 C 23.675781 -23.898438 23.78125 -24.164062 23.78125 -24.46875 C 23.78125 -24.800781 23.675781 -25.070312 23.46875 -25.28125 C 23.257812 -25.488281 22.988281 -25.59375 22.65625 -25.59375 L 15.859375 -25.59375 C 15.554688 -25.59375 15.289062 -25.488281 15.0625 -25.28125 C 14.832031 -25.070312 14.71875 -24.800781 14.71875 -24.46875 C 14.71875 -24.164062 14.832031 -23.898438 15.0625 -23.671875 C 15.289062 -23.441406 15.554688 -23.328125 15.859375 -23.328125 Z M 15.859375 -23.328125 "/></g></g></g><path stroke-linecap="butt" transform="matrix(0.75, 0, 0, 0.75, 68.587632, 217.105973)" fill="none" stroke-linejoin="miter" d="M 40.966493 26.99933 C 40.794618 26.99933 40.643577 26.93683 40.513368 26.81183 C 40.38316 26.681621 40.315452 26.525371 40.315452 26.353496 L 40.315452 21.686829 C 40.315452 21.494121 40.38316 21.343079 40.513368 21.223287 C 40.643577 21.103496 40.794618 21.040996 40.966493 21.040996 L 52.627952 21.040996 C 52.815452 21.040996 52.971702 20.973287 53.086286 20.843079 C 53.211286 20.712871 53.273786 20.567037 53.273786 20.395162 C 53.273786 20.202454 53.211286 20.046204 53.086286 19.926412 C 52.971702 19.806621 52.815452 19.744121 52.627952 19.744121 L 45.607119 19.744121 C 44.586285 19.744121 43.674827 19.514954 42.877952 19.061829 C 42.086285 18.603496 41.461285 17.973287 40.997743 17.181621 C 40.544618 16.384745 40.315452 15.478495 40.315452 14.46287 L 40.315452 11.55662 C 40.315452 10.540995 40.544618 9.629537 40.997743 8.83787 C 41.461285 8.040995 42.086285 7.415995 42.877952 6.957662 C 43.674827 6.499328 44.586285 6.270161 45.607119 6.270161 L 60.398786 6.270161 C 60.591495 6.270161 60.742536 6.332661 60.862328 6.452453 C 60.987328 6.577453 61.04462 6.733703 61.04462 6.921203 L 61.04462 11.582662 C 61.04462 11.759745 60.987328 11.910787 60.862328 12.040995 C 60.742536 12.165995 60.591495 12.228495 60.398786 12.228495 L 48.742536 12.228495 C 48.570661 12.228495 48.419619 12.290995 48.289411 12.410787 C 48.159202 12.535787 48.091494 12.692037 48.091494 12.879537 C 48.091494 13.051412 48.159202 13.207662 48.289411 13.33787 C 48.419619 13.46287 48.570661 13.52537 48.742536 13.52537 L 55.763369 13.52537 C 56.778994 13.52537 57.685244 13.754537 58.476911 14.218079 C 59.273786 14.671204 59.903995 15.296204 60.35712 16.093079 C 60.815453 16.884746 61.04462 17.796204 61.04462 18.817037 L 61.04462 21.712871 C 61.04462 22.733704 60.815453 23.639954 60.35712 24.436829 C 59.903995 25.228496 59.273786 25.858704 58.476911 26.317038 C 57.685244 26.770163 56.778994 26.99933 55.763369 26.99933 Z M 81.331079 26.99933 C 80.310246 26.99933 79.403996 26.770163 78.607121 26.317038 C 77.815454 25.858704 77.185246 25.228496 76.726912 24.436829 C 76.273787 23.639954 76.044621 22.733704 76.044621 21.712871 L 76.044621 11.55662 C 76.044621 10.540995 76.273787 9.629537 76.726912 8.83787 C 77.185246 8.040995 77.815454 7.415995 78.607121 6.957662 C 79.403996 6.499328 80.310246 6.270161 81.331079 6.270161 L 87.601913 6.270161 C 88.622746 6.270161 89.528997 6.499328 90.320663 6.957662 C 91.117538 7.415995 91.742538 8.040995 92.200872 8.83787 C 92.659205 9.629537 92.888372 10.540995 92.888372 11.55662 L 92.888372 21.712871 C 92.888372 22.733704 92.659205 23.639954 92.200872 24.436829 C 91.742538 25.228496 91.117538 25.858704 90.320663 26.317038 C 89.528997 26.770163 88.622746 26.99933 87.601913 26.99933 Z M 84.471705 21.040996 C 84.659205 21.040996 84.815455 20.973287 84.930038 20.843079 C 85.055038 20.712871 85.117538 20.567037 85.117538 20.395162 L 85.117538 12.879537 C 85.117538 12.692037 85.055038 12.535787 84.930038 12.410787 C 84.815455 12.290995 84.659205 12.228495 84.471705 12.228495 C 84.29983 12.228495 84.14358 12.290995 84.013371 12.410787 C 83.883163 12.535787 83.820663 12.692037 83.820663 12.879537 L 83.820663 20.395162 C 83.820663 20.567037 83.883163 20.712871 84.013371 20.843079 C 84.14358 20.973287 84.29983 21.040996 84.471705 21.040996 Z M 108.539414 26.99933 C 108.362331 26.99933 108.211289 26.93683 108.081081 26.81183 C 107.950873 26.681621 107.888373 26.525371 107.888373 26.353496 L 107.888373 6.921203 C 107.888373 6.733703 107.956081 6.577453 108.096706 6.452453 C 108.232123 6.332661 108.388373 6.270161 108.565456 6.270161 L 115.013373 6.270161 C 115.206082 6.270161 115.357123 6.33787 115.476915 6.468078 C 115.601915 6.598287 115.659207 6.759745 115.659207 6.947245 L 115.659207 19.358704 C 115.659207 19.530579 115.732123 19.681621 115.86754 19.811829 C 116.008165 19.942037 116.164415 20.004537 116.33629 20.004537 L 122.789415 20.004537 C 122.976915 20.004537 123.133165 20.067037 123.252957 20.186829 C 123.372749 20.306621 123.435249 20.457662 123.435249 20.650371 L 123.435249 26.353496 C 123.435249 26.525371 123.372749 26.681621 123.252957 26.81183 C 123.133165 26.93683 122.976915 26.99933 122.789415 26.99933 Z M 143.721708 26.99933 C 142.700875 26.99933 141.789417 26.770163 140.992542 26.317038 C 140.200875 25.858704 139.575875 25.228496 139.117541 24.436829 C 138.659208 23.639954 138.430041 22.733704 138.430041 21.712871 L 138.430041 6.921203 C 138.430041 6.733703 138.502958 6.577453 138.643583 6.452453 C 138.779 6.332661 138.93525 6.270161 139.107125 6.270161 L 145.56025 6.270161 C 145.752959 6.270161 145.904 6.332661 146.023792 6.452453 C 146.143584 6.577453 146.206084 6.733703 146.206084 6.921203 L 146.206084 19.358704 C 146.206084 19.530579 146.273792 19.681621 146.404 19.811829 C 146.534209 19.942037 146.68525 20.004537 146.857125 20.004537 C 147.049834 20.004537 147.200875 19.942037 147.320667 19.811829 C 147.440459 19.681621 147.502959 19.530579 147.502959 19.358704 L 147.502959 6.921203 C 147.502959 6.733703 147.570667 6.577453 147.711292 6.452453 C 147.851917 6.332661 148.002959 6.270161 148.174834 6.270161 L 154.627959 6.270161 C 154.815459 6.270161 154.971709 6.332661 155.096709 6.452453 C 155.216501 6.577453 155.279001 6.733703 155.279001 6.921203 L 155.279001 21.712871 C 155.279001 22.733704 155.049834 23.639954 154.586292 24.436829 C 154.133167 25.228496 153.508167 25.858704 152.711292 26.317038 C 151.914417 26.770163 151.008167 26.99933 149.987334 26.99933 Z M 174.862335 26.99933 C 174.685252 26.99933 174.529002 26.93683 174.393585 26.81183 C 174.258169 26.681621 174.19046 26.525371 174.19046 26.353496 L 174.19046 13.915995 C 174.19046 13.723287 174.122752 13.567037 173.992544 13.452454 C 173.862335 13.327454 173.700877 13.264954 173.513377 13.264954 L 170.924835 13.264954 C 170.75296 13.264954 170.601919 13.202454 170.47171 13.077454 C 170.341502 12.947245 170.273794 12.796204 170.273794 12.61912 L 170.273794 6.895162 C 170.273794 6.702453 170.341502 6.546203 170.47171 6.426411 C 170.601919 6.30662 170.75296 6.24412 170.924835 6.24412 L 185.22692 6.270161 C 185.419628 6.270161 185.57067 6.33787 185.690461 6.468078 C 185.810253 6.598287 185.872753 6.749328 185.872753 6.921203 L 185.872753 12.61912 C 185.872753 12.796204 185.810253 12.947245 185.690461 13.077454 C 185.57067 13.202454 185.419628 13.264954 185.22692 13.264954 L 182.633169 13.264954 C 182.461294 13.264954 182.305044 13.327454 182.164419 13.452454 C 182.029003 13.567037 181.966503 13.723287 181.966503 13.915995 L 181.966503 26.327454 C 181.966503 26.499329 181.904003 26.650371 181.779003 26.790996 C 181.659211 26.931621 181.502961 26.99933 181.310253 26.99933 Z M 201.549837 26.99933 C 201.377962 26.99933 201.221712 26.93683 201.081087 26.81183 C 200.940462 26.681621 200.872754 26.525371 200.872754 26.353496 L 200.872754 6.921203 C 200.872754 6.733703 200.935254 6.577453 201.070671 6.452453 C 201.200879 6.332661 201.351921 6.270161 201.523796 6.270161 L 207.976921 6.270161 C 208.164421 6.270161 208.325879 6.332661 208.450879 6.452453 C 208.581088 6.577453 208.648796 6.733703 208.648796 6.921203 L 208.648796 26.353496 C 208.648796 26.525371 208.586296 26.681621 208.461296 26.81183 C 208.346713 26.93683 208.190463 26.99933 208.002963 26.99933 Z M 228.935256 26.99933 C 227.914422 26.99933 227.008172 26.770163 226.206089 26.317038 C 225.414422 25.858704 224.789422 25.228496 224.331089 24.436829 C 223.872755 23.639954 223.648797 22.733704 223.648797 21.712871 L 223.648797 11.55662 C 223.648797 10.540995 223.872755 9.629537 224.331089 8.83787 C 224.789422 8.040995 225.414422 7.415995 226.206089 6.957662 C 227.008172 6.499328 227.914422 6.270161 228.935256 6.270161 L 235.206089 6.270161 C 236.221715 6.270161 237.133173 6.499328 237.92484 6.957662 C 238.721715 7.415995 239.346715 8.040995 239.805048 8.83787 C 240.263381 9.629537 240.492548 10.540995 240.492548 11.55662 L 240.492548 21.712871 C 240.492548 22.733704 240.263381 23.639954 239.805048 24.436829 C 239.346715 25.228496 238.721715 25.858704 237.92484 26.317038 C 237.133173 26.770163 236.221715 26.99933 235.206089 26.99933 Z M 232.070673 21.040996 C 232.263381 21.040996 232.414423 20.973287 232.534214 20.843079 C 232.654006 20.712871 232.716506 20.567037 232.716506 20.395162 L 232.716506 12.879537 C 232.716506 12.692037 232.654006 12.535787 232.534214 12.410787 C 232.414423 12.290995 232.263381 12.228495 232.070673 12.228495 C 231.898798 12.228495 231.747756 12.290995 231.617548 12.410787 C 231.487339 12.535787 231.419631 12.692037 231.419631 12.879537 L 231.419631 20.395162 C 231.419631 20.567037 231.487339 20.712871 231.617548 20.843079 C 231.747756 20.973287 231.898798 21.040996 232.070673 21.040996 Z M 256.164424 26.99933 C 255.992549 26.99933 255.836299 26.93683 255.695674 26.81183 C 255.560257 26.681621 255.487341 26.525371 255.487341 26.353496 L 255.487341 6.921203 C 255.487341 6.733703 255.555049 6.577453 255.685257 6.452453 C 255.815466 6.332661 255.966507 6.270161 256.138382 6.270161 L 270.362342 6.270161 C 270.55505 6.270161 270.716508 6.322245 270.841508 6.426411 C 270.971717 6.530578 271.039425 6.686828 271.039425 6.895162 L 271.039425 18.629537 C 271.039425 18.806621 271.101925 18.957662 271.226925 19.087871 C 271.357133 19.212871 271.508175 19.275371 271.68005 19.275371 C 271.872759 19.275371 272.029009 19.212871 272.1488 19.087871 C 272.2738 18.957662 272.331092 18.806621 272.331092 18.629537 L 272.331092 6.921203 C 272.331092 6.733703 272.3988 6.577453 272.5238 6.452453 C 272.654009 6.332661 272.80505 6.270161 272.976925 6.270161 L 279.456092 6.270161 C 279.643592 6.270161 279.799842 6.332661 279.924842 6.452453 C 280.044634 6.577453 280.107134 6.733703 280.107134 6.921203 L 280.107134 26.353496 C 280.107134 26.525371 280.044634 26.681621 279.924842 26.81183 C 279.799842 26.93683 279.643592 26.99933 279.456092 26.99933 L 265.232133 26.99933 C 265.039425 26.99933 264.877966 26.947246 264.747758 26.837871 C 264.622758 26.723288 264.560258 26.572246 264.560258 26.379538 L 264.560258 14.822245 C 264.560258 14.634745 264.497758 14.478495 264.377966 14.353495 C 264.258175 14.233704 264.101925 14.171204 263.914425 14.171204 C 263.74255 14.171204 263.591508 14.233704 263.456091 14.353495 C 263.325883 14.478495 263.263383 14.634745 263.263383 14.822245 L 263.263383 26.353496 C 263.263383 26.525371 263.200883 26.681621 263.081091 26.81183 C 262.9613 26.93683 262.80505 26.99933 262.61755 26.99933 Z M 295.752968 26.99933 C 295.581093 26.99933 295.430052 26.93683 295.299843 26.81183 C 295.169635 26.681621 295.101927 26.525371 295.101927 26.353496 L 295.101927 21.686829 C 295.101927 21.494121 295.169635 21.343079 295.299843 21.223287 C 295.430052 21.103496 295.581093 21.040996 295.752968 21.040996 L 307.409219 21.040996 C 307.601928 21.040996 307.752969 20.973287 307.872761 20.843079 C 307.997761 20.712871 308.055053 20.567037 308.055053 20.395162 C 308.055053 20.202454 307.997761 20.046204 307.872761 19.926412 C 307.752969 19.806621 307.601928 19.744121 307.409219 19.744121 L 300.388385 19.744121 C 299.367552 19.744121 298.461302 19.514954 297.664427 19.061829 C 296.87276 18.603496 296.242552 17.973287 295.784218 17.181621 C 295.331093 16.384745 295.101927 15.478495 295.101927 14.46287 L 295.101927 11.55662 C 295.101927 10.540995 295.331093 9.629537 295.784218 8.83787 C 296.242552 8.040995 296.87276 7.415995 297.664427 6.957662 C 298.461302 6.499328 299.367552 6.270161 300.388385 6.270161 L 315.185261 6.270161 C 315.37797 6.270161 315.529011 6.332661 315.648803 6.452453 C 315.768595 6.577453 315.831095 6.733703 315.831095 6.921203 L 315.831095 11.582662 C 315.831095 11.759745 315.768595 11.910787 315.648803 12.040995 C 315.529011 12.165995 315.37797 12.228495 315.185261 12.228495 L 303.529011 12.228495 C 303.357136 12.228495 303.200886 12.290995 303.070677 12.410787 C 302.940469 12.535787 302.877969 12.692037 302.877969 12.879537 C 302.877969 13.051412 302.940469 13.207662 303.070677 13.33787 C 303.200886 13.46287 303.357136 13.52537 303.529011 13.52537 L 310.549844 13.52537 C 311.565469 13.52537 312.47172 13.754537 313.263386 14.218079 C 314.060261 14.671204 314.685261 15.296204 315.143595 16.093079 C 315.601928 16.884746 315.831095 17.796204 315.831095 18.817037 L 315.831095 21.712871 C 315.831095 22.733704 315.601928 23.639954 315.143595 24.436829 C 314.685261 25.228496 314.060261 25.858704 313.263386 26.317038 C 312.47172 26.770163 311.565469 26.99933 310.549844 26.99933 Z M 295.752968 26.99933 " stroke="#000000" stroke-width="6.801769" stroke-opacity="1" stroke-miterlimit="4"/><g fill="#ffffff" fill-opacity="1"><g transform="translate(98.341536, 237.355972)"><g><path d="M 0.96875 0 C 0.84375 0 0.726562 -0.046875 0.625 -0.140625 C 0.53125 -0.242188 0.484375 -0.359375 0.484375 -0.484375 L 0.484375 -3.984375 C 0.484375 -4.128906 0.53125 -4.242188 0.625 -4.328125 C 0.726562 -4.421875 0.84375 -4.46875 0.96875 -4.46875 L 9.71875 -4.46875 C 9.863281 -4.46875 9.976562 -4.515625 10.0625 -4.609375 C 10.15625 -4.710938 10.203125 -4.828125 10.203125 -4.953125 C 10.203125 -5.097656 10.15625 -5.210938 10.0625 -5.296875 C 9.976562 -5.390625 9.863281 -5.4375 9.71875 -5.4375 L 4.453125 -5.4375 C 3.679688 -5.4375 3 -5.609375 2.40625 -5.953125 C 1.8125 -6.296875 1.34375 -6.765625 1 -7.359375 C 0.65625 -7.960938 0.484375 -8.644531 0.484375 -9.40625 L 0.484375 -11.578125 C 0.484375 -12.347656 0.65625 -13.03125 1 -13.625 C 1.34375 -14.21875 1.8125 -14.6875 2.40625 -15.03125 C 3 -15.375 3.679688 -15.546875 4.453125 -15.546875 L 15.546875 -15.546875 C 15.691406 -15.546875 15.804688 -15.5 15.890625 -15.40625 C 15.984375 -15.320312 16.03125 -15.207031 16.03125 -15.0625 L 16.03125 -11.5625 C 16.03125 -11.4375 15.984375 -11.320312 15.890625 -11.21875 C 15.804688 -11.125 15.691406 -11.078125 15.546875 -11.078125 L 6.796875 -11.078125 C 6.671875 -11.078125 6.554688 -11.03125 6.453125 -10.9375 C 6.359375 -10.851562 6.3125 -10.738281 6.3125 -10.59375 C 6.3125 -10.46875 6.359375 -10.351562 6.453125 -10.25 C 6.554688 -10.15625 6.671875 -10.109375 6.796875 -10.109375 L 12.078125 -10.109375 C 12.835938 -10.109375 13.515625 -9.9375 14.109375 -9.59375 C 14.703125 -9.25 15.171875 -8.78125 15.515625 -8.1875 C 15.859375 -7.59375 16.03125 -6.910156 16.03125 -6.140625 L 16.03125 -3.96875 C 16.03125 -3.195312 15.859375 -2.515625 15.515625 -1.921875 C 15.171875 -1.328125 14.703125 -0.859375 14.109375 -0.515625 C 13.515625 -0.171875 12.835938 0 12.078125 0 Z M 0.96875 0 "/></g></g></g><g fill="#ffffff" fill-opacity="1"><g transform="translate(125.1372, 237.355972)"><g><path d="M 4.453125 0 C 3.679688 0 3 -0.171875 2.40625 -0.515625 C 1.8125 -0.859375 1.34375 -1.328125 1 -1.921875 C 0.65625 -2.515625 0.484375 -3.195312 0.484375 -3.96875 L 0.484375 -11.578125 C 0.484375 -12.347656 0.65625 -13.03125 1 -13.625 C 1.34375 -14.21875 1.8125 -14.6875 2.40625 -15.03125 C 3 -15.375 3.679688 -15.546875 4.453125 -15.546875 L 9.15625 -15.546875 C 9.914062 -15.546875 10.59375 -15.375 11.1875 -15.03125 C 11.789062 -14.6875 12.265625 -14.21875 12.609375 -13.625 C 12.953125 -13.03125 13.125 -12.347656 13.125 -11.578125 L 13.125 -3.96875 C 13.125 -3.195312 12.953125 -2.515625 12.609375 -1.921875 C 12.265625 -1.328125 11.789062 -0.859375 11.1875 -0.515625 C 10.59375 -0.171875 9.914062 0 9.15625 0 Z M 6.796875 -4.46875 C 6.941406 -4.46875 7.0625 -4.515625 7.15625 -4.609375 C 7.25 -4.710938 7.296875 -4.828125 7.296875 -4.953125 L 7.296875 -10.59375 C 7.296875 -10.738281 7.25 -10.851562 7.15625 -10.9375 C 7.0625 -11.03125 6.941406 -11.078125 6.796875 -11.078125 C 6.671875 -11.078125 6.554688 -11.03125 6.453125 -10.9375 C 6.359375 -10.851562 6.3125 -10.738281 6.3125 -10.59375 L 6.3125 -4.953125 C 6.3125 -4.828125 6.359375 -4.710938 6.453125 -4.609375 C 6.554688 -4.515625 6.671875 -4.46875 6.796875 -4.46875 Z M 6.796875 -4.46875 "/></g></g></g><g fill="#ffffff" fill-opacity="1"><g transform="translate(149.018409, 237.355972)"><g><path d="M 0.96875 0 C 0.84375 0 0.726562 -0.046875 0.625 -0.140625 C 0.53125 -0.242188 0.484375 -0.359375 0.484375 -0.484375 L 0.484375 -15.0625 C 0.484375 -15.207031 0.535156 -15.320312 0.640625 -15.40625 C 0.742188 -15.5 0.859375 -15.546875 0.984375 -15.546875 L 5.828125 -15.546875 C 5.972656 -15.546875 6.085938 -15.5 6.171875 -15.40625 C 6.265625 -15.3125 6.3125 -15.191406 6.3125 -15.046875 L 6.3125 -5.734375 C 6.3125 -5.609375 6.363281 -5.492188 6.46875 -5.390625 C 6.570312 -5.296875 6.691406 -5.25 6.828125 -5.25 L 11.65625 -5.25 C 11.800781 -5.25 11.921875 -5.203125 12.015625 -5.109375 C 12.109375 -5.015625 12.15625 -4.898438 12.15625 -4.765625 L 12.15625 -0.484375 C 12.15625 -0.359375 12.109375 -0.242188 12.015625 -0.140625 C 11.921875 -0.046875 11.800781 0 11.65625 0 Z M 0.96875 0 "/></g></g></g><g fill="#ffffff" fill-opacity="1"><g transform="translate(171.928129, 237.355972)"><g><path d="M 4.453125 0 C 3.679688 0 3 -0.171875 2.40625 -0.515625 C 1.8125 -0.859375 1.34375 -1.328125 1 -1.921875 C 0.65625 -2.515625 0.484375 -3.195312 0.484375 -3.96875 L 0.484375 -15.0625 C 0.484375 -15.207031 0.535156 -15.320312 0.640625 -15.40625 C 0.742188 -15.5 0.859375 -15.546875 0.984375 -15.546875 L 5.828125 -15.546875 C 5.972656 -15.546875 6.085938 -15.5 6.171875 -15.40625 C 6.265625 -15.320312 6.3125 -15.207031 6.3125 -15.0625 L 6.3125 -5.734375 C 6.3125 -5.609375 6.359375 -5.492188 6.453125 -5.390625 C 6.554688 -5.296875 6.671875 -5.25 6.796875 -5.25 C 6.941406 -5.25 7.0625 -5.296875 7.15625 -5.390625 C 7.25 -5.492188 7.296875 -5.609375 7.296875 -5.734375 L 7.296875 -15.0625 C 7.296875 -15.207031 7.34375 -15.320312 7.4375 -15.40625 C 7.539062 -15.5 7.660156 -15.546875 7.796875 -15.546875 L 12.640625 -15.546875 C 12.773438 -15.546875 12.890625 -15.5 12.984375 -15.40625 C 13.078125 -15.320312 13.125 -15.207031 13.125 -15.0625 L 13.125 -3.96875 C 13.125 -3.195312 12.953125 -2.515625 12.609375 -1.921875 C 12.265625 -1.328125 11.789062 -0.859375 11.1875 -0.515625 C 10.59375 -0.171875 9.914062 0 9.15625 0 Z M 4.453125 0 "/></g></g></g><g fill="#ffffff" fill-opacity="1"><g transform="translate(195.809338, 237.355972)"><g><path d="M 3.921875 0 C 3.796875 0 3.679688 -0.046875 3.578125 -0.140625 C 3.472656 -0.242188 3.421875 -0.359375 3.421875 -0.484375 L 3.421875 -9.8125 C 3.421875 -9.957031 3.367188 -10.070312 3.265625 -10.15625 C 3.171875 -10.25 3.054688 -10.296875 2.921875 -10.296875 L 0.96875 -10.296875 C 0.84375 -10.296875 0.726562 -10.34375 0.625 -10.4375 C 0.53125 -10.539062 0.484375 -10.65625 0.484375 -10.78125 L 0.484375 -15.078125 C 0.484375 -15.222656 0.53125 -15.335938 0.625 -15.421875 C 0.726562 -15.515625 0.84375 -15.5625 0.96875 -15.5625 L 11.703125 -15.546875 C 11.847656 -15.546875 11.960938 -15.5 12.046875 -15.40625 C 12.140625 -15.3125 12.1875 -15.195312 12.1875 -15.0625 L 12.1875 -10.78125 C 12.1875 -10.65625 12.140625 -10.539062 12.046875 -10.4375 C 11.960938 -10.34375 11.847656 -10.296875 11.703125 -10.296875 L 9.75 -10.296875 C 9.625 -10.296875 9.507812 -10.25 9.40625 -10.15625 C 9.300781 -10.070312 9.25 -9.957031 9.25 -9.8125 L 9.25 -0.5 C 9.25 -0.375 9.203125 -0.257812 9.109375 -0.15625 C 9.023438 -0.0507812 8.910156 0 8.765625 0 Z M 3.921875 0 "/></g></g></g><g fill="#ffffff" fill-opacity="1"><g transform="translate(218.757922, 237.355972)"><g><path d="M 0.984375 0 C 0.859375 0 0.742188 -0.046875 0.640625 -0.140625 C 0.535156 -0.242188 0.484375 -0.359375 0.484375 -0.484375 L 0.484375 -15.0625 C 0.484375 -15.207031 0.53125 -15.320312 0.625 -15.40625 C 0.726562 -15.5 0.84375 -15.546875 0.96875 -15.546875 L 5.8125 -15.546875 C 5.957031 -15.546875 6.078125 -15.5 6.171875 -15.40625 C 6.265625 -15.320312 6.3125 -15.207031 6.3125 -15.0625 L 6.3125 -0.484375 C 6.3125 -0.359375 6.265625 -0.242188 6.171875 -0.140625 C 6.085938 -0.046875 5.972656 0 5.828125 0 Z M 0.984375 0 "/></g></g></g><g fill="#ffffff" fill-opacity="1"><g transform="translate(235.83872, 237.355972)"><g><path d="M 4.453125 0 C 3.679688 0 3 -0.171875 2.40625 -0.515625 C 1.8125 -0.859375 1.34375 -1.328125 1 -1.921875 C 0.65625 -2.515625 0.484375 -3.195312 0.484375 -3.96875 L 0.484375 -11.578125 C 0.484375 -12.347656 0.65625 -13.03125 1 -13.625 C 1.34375 -14.21875 1.8125 -14.6875 2.40625 -15.03125 C 3 -15.375 3.679688 -15.546875 4.453125 -15.546875 L 9.15625 -15.546875 C 9.914062 -15.546875 10.59375 -15.375 11.1875 -15.03125 C 11.789062 -14.6875 12.265625 -14.21875 12.609375 -13.625 C 12.953125 -13.03125 13.125 -12.347656 13.125 -11.578125 L 13.125 -3.96875 C 13.125 -3.195312 12.953125 -2.515625 12.609375 -1.921875 C 12.265625 -1.328125 11.789062 -0.859375 11.1875 -0.515625 C 10.59375 -0.171875 9.914062 0 9.15625 0 Z M 6.796875 -4.46875 C 6.941406 -4.46875 7.0625 -4.515625 7.15625 -4.609375 C 7.25 -4.710938 7.296875 -4.828125 7.296875 -4.953125 L 7.296875 -10.59375 C 7.296875 -10.738281 7.25 -10.851562 7.15625 -10.9375 C 7.0625 -11.03125 6.941406 -11.078125 6.796875 -11.078125 C 6.671875 -11.078125 6.554688 -11.03125 6.453125 -10.9375 C 6.359375 -10.851562 6.3125 -10.738281 6.3125 -10.59375 L 6.3125 -4.953125 C 6.3125 -4.828125 6.359375 -4.710938 6.453125 -4.609375 C 6.554688 -4.515625 6.671875 -4.46875 6.796875 -4.46875 Z M 6.796875 -4.46875 "/></g></g></g><g fill="#ffffff" fill-opacity="1"><g transform="translate(259.719929, 237.355972)"><g><path d="M 0.984375 0 C 0.859375 0 0.742188 -0.046875 0.640625 -0.140625 C 0.535156 -0.242188 0.484375 -0.359375 0.484375 -0.484375 L 0.484375 -15.0625 C 0.484375 -15.207031 0.53125 -15.320312 0.625 -15.40625 C 0.726562 -15.5 0.84375 -15.546875 0.96875 -15.546875 L 11.640625 -15.546875 C 11.785156 -15.546875 11.90625 -15.503906 12 -15.421875 C 12.101562 -15.347656 12.15625 -15.234375 12.15625 -15.078125 L 12.15625 -6.28125 C 12.15625 -6.144531 12.203125 -6.03125 12.296875 -5.9375 C 12.390625 -5.84375 12.503906 -5.796875 12.640625 -5.796875 C 12.773438 -5.796875 12.890625 -5.84375 12.984375 -5.9375 C 13.078125 -6.03125 13.125 -6.144531 13.125 -6.28125 L 13.125 -15.0625 C 13.125 -15.207031 13.171875 -15.320312 13.265625 -15.40625 C 13.359375 -15.5 13.472656 -15.546875 13.609375 -15.546875 L 18.46875 -15.546875 C 18.601562 -15.546875 18.71875 -15.5 18.8125 -15.40625 C 18.90625 -15.320312 18.953125 -15.207031 18.953125 -15.0625 L 18.953125 -0.484375 C 18.953125 -0.359375 18.90625 -0.242188 18.8125 -0.140625 C 18.71875 -0.046875 18.601562 0 18.46875 0 L 7.796875 0 C 7.648438 0 7.53125 -0.0390625 7.4375 -0.125 C 7.34375 -0.207031 7.296875 -0.320312 7.296875 -0.46875 L 7.296875 -9.140625 C 7.296875 -9.273438 7.25 -9.390625 7.15625 -9.484375 C 7.0625 -9.578125 6.941406 -9.625 6.796875 -9.625 C 6.671875 -9.625 6.554688 -9.578125 6.453125 -9.484375 C 6.359375 -9.390625 6.3125 -9.273438 6.3125 -9.140625 L 6.3125 -0.484375 C 6.3125 -0.359375 6.265625 -0.242188 6.171875 -0.140625 C 6.085938 -0.046875 5.972656 0 5.828125 0 Z M 0.984375 0 "/></g></g></g><g fill="#ffffff" fill-opacity="1"><g transform="translate(289.430059, 237.355972)"><g><path d="M 0.96875 0 C 0.84375 0 0.726562 -0.046875 0.625 -0.140625 C 0.53125 -0.242188 0.484375 -0.359375 0.484375 -0.484375 L 0.484375 -3.984375 C 0.484375 -4.128906 0.53125 -4.242188 0.625 -4.328125 C 0.726562 -4.421875 0.84375 -4.46875 0.96875 -4.46875 L 9.71875 -4.46875 C 9.863281 -4.46875 9.976562 -4.515625 10.0625 -4.609375 C 10.15625 -4.710938 10.203125 -4.828125 10.203125 -4.953125 C 10.203125 -5.097656 10.15625 -5.210938 10.0625 -5.296875 C 9.976562 -5.390625 9.863281 -5.4375 9.71875 -5.4375 L 4.453125 -5.4375 C 3.679688 -5.4375 3 -5.609375 2.40625 -5.953125 C 1.8125 -6.296875 1.34375 -6.765625 1 -7.359375 C 0.65625 -7.960938 0.484375 -8.644531 0.484375 -9.40625 L 0.484375 -11.578125 C 0.484375 -12.347656 0.65625 -13.03125 1 -13.625 C 1.34375 -14.21875 1.8125 -14.6875 2.40625 -15.03125 C 3 -15.375 3.679688 -15.546875 4.453125 -15.546875 L 15.546875 -15.546875 C 15.691406 -15.546875 15.804688 -15.5 15.890625 -15.40625 C 15.984375 -15.320312 16.03125 -15.207031 16.03125 -15.0625 L 16.03125 -11.5625 C 16.03125 -11.4375 15.984375 -11.320312 15.890625 -11.21875 C 15.804688 -11.125 15.691406 -11.078125 15.546875 -11.078125 L 6.796875 -11.078125 C 6.671875 -11.078125 6.554688 -11.03125 6.453125 -10.9375 C 6.359375 -10.851562 6.3125 -10.738281 6.3125 -10.59375 C 6.3125 -10.46875 6.359375 -10.351562 6.453125 -10.25 C 6.554688 -10.15625 6.671875 -10.109375 6.796875 -10.109375 L 12.078125 -10.109375 C 12.835938 -10.109375 13.515625 -9.9375 14.109375 -9.59375 C 14.703125 -9.25 15.171875 -8.78125 15.515625 -8.1875 C 15.859375 -7.59375 16.03125 -6.910156 16.03125 -6.140625 L 16.03125 -3.96875 C 16.03125 -3.195312 15.859375 -2.515625 15.515625 -1.921875 C 15.171875 -1.328125 14.703125 -0.859375 14.109375 -0.515625 C 13.515625 -0.171875 12.835938 0 12.078125 0 Z M 0.96875 0 "/></g></g></g></svg>